<svg width="60" height="60" viewBox="0 0 60 60" fill="none" xmlns="http://www.w3.org/2000/svg">
<path d="M30 59C13.9837 59 1 46.0163 1 30C1 13.9837 13.9837 1 30 1C46.0163 1 59 13.9837 59 30C59 46.0163 46.0163 59 30 59Z" stroke="#52503B" stroke-width="2"/>
<path d="M18.9393 27.9393C18.3536 28.5251 18.3536 29.4749 18.9393 30.0607L28.4853 39.6066C29.0711 40.1924 30.0208 40.1924 30.6066 39.6066C31.1924 39.0208 31.1924 38.0711 30.6066 37.4853L22.1213 29L30.6066 20.5147C31.1924 19.9289 31.1924 18.9792 30.6066 18.3934C30.0208 17.8076 29.0711 17.8076 28.4853 18.3934L18.9393 27.9393ZM40 27.5L20 27.5V30.5L40 30.5V27.5Z" fill="#52503B"/>
</svg>
