<svg width="60" height="60" viewBox="0 0 60 60" fill="none" xmlns="http://www.w3.org/2000/svg">
<path d="M41.0607 30.0607C41.6464 29.4749 41.6464 28.5251 41.0607 27.9393L31.5147 18.3934C30.9289 17.8076 29.9792 17.8076 29.3934 18.3934C28.8076 18.9792 28.8076 19.9289 29.3934 20.5147L37.8787 29L29.3934 37.4853C28.8076 38.0711 28.8076 39.0208 29.3934 39.6066C29.9792 40.1924 30.9289 40.1924 31.5147 39.6066L41.0607 30.0607ZM20 30.5L40 30.5L40 27.5L20 27.5L20 30.5Z" fill="#52503B"/>
<path d="M30 59C13.9837 59 1 46.0163 1 30C1 13.9837 13.9837 1 30 1C46.0163 1 59 13.9837 59 30C59 46.0163 46.0163 59 30 59Z" stroke="#52503B" stroke-width="2"/>
</svg>
